<svg xmlns="http://www.w3.org/2000/svg" xmlns:svg="http://www.w3.org/2000/svg" viewBox="0 0 545.9 104.4">
	<g>
		<g class="logo">
		<rect x="84.9" y="33.7" width="23.4" height="13.7"></rect>
		<rect x="84.9" y="52.7" width="23.4" height="13.7"></rect>
		<rect x="84.9" y="71.7" width="23.4" height="13.7"></rect>
		<rect y="90.7" width="23.4" height="13.7"></rect>
		<rect x="28.3" y="90.7" width="23.4" height="13.7"></rect>
		<rect x="56.6" y="90.7" width="23.4" height="13.7"></rect>
		<rect x="84.9" y="90.7" width="23.4" height="13.7"></rect>
		<rect x="56.6" y="71.7" width="23.4" height="13.7"></rect>
		<rect x="28.3" y="71.7" width="23.4" height="13.7"></rect>
		<rect x="28.3" y="52.7" width="23.4" height="13.7"></rect>
		</g>
		<g class="deezer">
			<path d="M127.8,69.3c0,21.9,13.5,35,33.5,35c10,0,18.4-2.8,23.1-10.1v10.1h18.3V0h-19v44.3c-4.3-7.3-12.3-10.6-22.3-10.6C141.9,33.7,127.8,47.1,127.8,69.3z M184.3,69.3c0,12.5-8.5,20.3-18.7,20.3c-10.6,0-18.7-7.8-18.7-20.3c0-12.7,8.2-20.7,18.7-20.7C175.8,48.6,184.3,56.7,184.3,69.3z"></path>
			<path d="M261.8,77.4c-2.2,8.1-7.7,12.1-16.4,12.1c-10.1,0-18.4-6.1-18.6-16.9h47.9c0.6-2.7,0.9-5.5,0.9-8.6c0-19.4-13.2-30.3-32.7-30.3c-20.8,0-35.1,14.8-35.1,34.9c0,22.4,15.8,35.8,37.6,35.8c16.5,0,27.7-6.9,32.6-20.6L261.8,77.4zM226.8,59.9c1.8-7.8,8.3-12.4,16.1-12.4c8.5,0,14.3,4.6,14.3,11.8l-0.1,0.6H226.8z"></path>
			<path d="M332.3,77.4c-2.2,8.1-7.7,12.1-16.4,12.1c-10.1,0-18.4-6.1-18.6-16.9h47.9c0.6-2.7,0.9-5.5,0.9-8.6c0-19.4-13.2-30.3-32.7-30.3c-20.8,0-35.1,14.8-35.1,34.9c0,22.4,15.8,35.8,37.6,35.8c16.5,0,27.7-6.9,32.6-20.6L332.3,77.4zM297.3,59.9c1.8-7.8,8.3-12.4,16.1-12.4c8.5,0,14.3,4.6,14.3,11.8l-0.1,0.6H297.3z"></path>
			<path d="M413.1,104.4V87.2h-39.9L412,49.4V33.7h-61.4v16.4h37.5L349.4,88v16.4H413.1z"></path>
			<path d="M468.6,77.4c-2.2,8.1-7.7,12.1-16.4,12.1c-10.1,0-18.4-6.1-18.6-16.9h47.9c0.6-2.7,0.9-5.5,0.9-8.6c0-19.4-13.2-30.3-32.7-30.3c-20.8,0-35.1,14.8-35.1,34.9c0,22.4,15.8,35.8,37.6,35.8c16.5,0,27.7-6.9,32.6-20.6L468.6,77.4zM433.6,59.9c1.8-7.8,8.3-12.4,16.1-12.4c8.5,0,14.3,4.6,14.3,11.8l-0.1,0.6H433.6z"></path>
			<path d="M527.4,58.1c0,0.7,0,2,0,2l18.5,0c0,0,0-3.5,0-5.4c0-12.1-7.6-20.9-20.3-20.9c-8.2,0-14,4-17,10.6V33.8h-19.1v70.6h19.1V58.9c0-7.2,3.9-11.2,9.8-11.2C523.9,47.8,527.4,52.9,527.4,58.1z"></path>
		</g>
	</g>
</svg>