<svg id="deezer_svg_logo" xmlns="http://www.w3.org/2000/svg" xmlns:svg="http://www.w3.org/2000/svg" viewBox="0 0 545.9 104.4">
	<defs>
		<style>
			.deezer {
				fill: #000000;
			}
			.st1 {
				fill-rule: evenodd;
				clip-rule: evenodd;
				fill: #40AB5D;
			}
			.st2 {
				fill-rule: evenodd;
				clip-rule: evenodd;
				fill: url(#SVGID_1_);
			}
			.st3 {
				fill-rule: evenodd;
				clip-rule: evenodd;
				fill: url(#SVGID_2_);
			}
			.st4 {
				fill-rule: evenodd;
				clip-rule: evenodd;
				fill: url(#SVGID_3_);
			}
			.st5 {
				fill-rule: evenodd;
				clip-rule: evenodd;
				fill: url(#SVGID_4_);
			}
			.st6 {
				fill-rule: evenodd;
				clip-rule: evenodd;
				fill: url(#SVGID_5_);
			}
			.st7 {
				fill-rule: evenodd;
				clip-rule: evenodd;
				fill: url(#SVGID_6_);
			}
			.st8 {
				fill-rule: evenodd;
				clip-rule: evenodd;
				fill: url(#SVGID_7_);
			}
			.st9 {
				fill-rule: evenodd;
				clip-rule: evenodd;
				fill: url(#SVGID_8_);
			}
			.st10 {
				fill-rule: evenodd;
				clip-rule: evenodd;
				fill: url(#SVGID_9_);
			}
		</style>
	</defs>
	<g>
		<rect x="84.9" y="33.7" class="st1" width="23.4" height="13.7"></rect>
		<linearGradient id="SVGID_1_" gradientUnits="userSpaceOnUse" x1="96.6889" y1="66.5191" x2="96.4687" y2="52.4972">
			<stop offset="0" style="stop-color:#358C7B"></stop>
			<stop offset="0.5256" style="stop-color:#33A65E"></stop>
		</linearGradient>
		<rect x="84.9" y="52.7" class="st2" width="23.4" height="13.7"></rect>
		<linearGradient id="SVGID_2_" gradientUnits="userSpaceOnUse" x1="84.5228" y1="84.6741" x2="108.6348" y2="72.3884">
			<stop offset="0" style="stop-color:#222B90"></stop>
			<stop offset="1" style="stop-color:#367B99"></stop>
		</linearGradient>
		<rect x="84.9" y="71.7" class="st3" width="23.4" height="13.7"></rect>
		<linearGradient id="SVGID_3_" gradientUnits="userSpaceOnUse" x1="0" y1="97.5543" x2="23.413" y2="97.5543">
			<stop offset="0" style="stop-color:#FF9900"></stop>
			<stop offset="1" style="stop-color:#FF8000"></stop>
		</linearGradient>
		<rect y="90.7" class="st4" width="23.4" height="13.7"></rect>
		<linearGradient id="SVGID_4_" gradientUnits="userSpaceOnUse" x1="28.2908" y1="97.5543" x2="51.7038" y2="97.5543">
			<stop offset="0" style="stop-color:#FF8000"></stop>
			<stop offset="1" style="stop-color:#CC1953"></stop>
		</linearGradient>
		<rect x="28.3" y="90.7" class="st5" width="23.4" height="13.7"></rect>
		<linearGradient id="SVGID_5_" gradientUnits="userSpaceOnUse" x1="56.5815" y1="97.5543" x2="79.9946" y2="97.5543">
			<stop offset="0" style="stop-color:#CC1953"></stop>
			<stop offset="1" style="stop-color:#241284"></stop>
		</linearGradient>
		<rect x="56.6" y="90.7" class="st6" width="23.4" height="13.7"></rect>
		<linearGradient id="SVGID_6_" gradientUnits="userSpaceOnUse" x1="84.8723" y1="97.5543" x2="108.2853" y2="97.5543">
			<stop offset="0" style="stop-color:#222B90"></stop>
			<stop offset="1" style="stop-color:#3559A6"></stop>
		</linearGradient>
		<rect x="84.9" y="90.7" class="st7" width="23.4" height="13.7"></rect>
		<linearGradient id="SVGID_7_" gradientUnits="userSpaceOnUse" x1="55.6641" y1="82.2227" x2="80.912" y2="74.8397">
			<stop offset="0" style="stop-color:#CC1953"></stop>
			<stop offset="1" style="stop-color:#241284"></stop>
		</linearGradient>
		<rect x="56.6" y="71.7" class="st8" width="23.4" height="13.7"></rect>
		<linearGradient id="SVGID_8_" gradientUnits="userSpaceOnUse" x1="27.4654" y1="73.97" x2="52.5291" y2="83.0925">
			<stop offset="0" style="stop-color:#FFCC00"></stop>
			<stop offset="1" style="stop-color:#CE1938"></stop>
		</linearGradient>
		<rect x="28.3" y="71.7" class="st9" width="23.4" height="13.7"></rect>
		<linearGradient id="SVGID_9_" gradientUnits="userSpaceOnUse" x1="30.2712" y1="50.5332" x2="49.7234" y2="68.4831">
			<stop offset="0" style="stop-color:#FFD100"></stop>
			<stop offset="1" style="stop-color:#FD5A22"></stop>
		</linearGradient>
		<rect x="28.3" y="52.7" class="st10" width="23.4" height="13.7"></rect>
		<g class="deezer">
			<path d="M127.8,69.3c0,21.9,13.5,35,33.5,35c10,0,18.4-2.8,23.1-10.1v10.1h18.3V0h-19v44.3c-4.3-7.3-12.3-10.6-22.3-10.6C141.9,33.7,127.8,47.1,127.8,69.3z M184.3,69.3c0,12.5-8.5,20.3-18.7,20.3c-10.6,0-18.7-7.8-18.7-20.3c0-12.7,8.2-20.7,18.7-20.7C175.8,48.6,184.3,56.7,184.3,69.3z"></path>
			<path d="M261.8,77.4c-2.2,8.1-7.7,12.1-16.4,12.1c-10.1,0-18.4-6.1-18.6-16.9h47.9c0.6-2.7,0.9-5.5,0.9-8.6c0-19.4-13.2-30.3-32.7-30.3c-20.8,0-35.1,14.8-35.1,34.9c0,22.4,15.8,35.8,37.6,35.8c16.5,0,27.7-6.9,32.6-20.6L261.8,77.4zM226.8,59.9c1.8-7.8,8.3-12.4,16.1-12.4c8.5,0,14.3,4.6,14.3,11.8l-0.1,0.6H226.8z"></path>
			<path d="M332.3,77.4c-2.2,8.1-7.7,12.1-16.4,12.1c-10.1,0-18.4-6.1-18.6-16.9h47.9c0.6-2.7,0.9-5.5,0.9-8.6c0-19.4-13.2-30.3-32.7-30.3c-20.8,0-35.1,14.8-35.1,34.9c0,22.4,15.8,35.8,37.6,35.8c16.5,0,27.7-6.9,32.6-20.6L332.3,77.4zM297.3,59.9c1.8-7.8,8.3-12.4,16.1-12.4c8.5,0,14.3,4.6,14.3,11.8l-0.1,0.6H297.3z"></path>
			<path d="M413.1,104.4V87.2h-39.9L412,49.4V33.7h-61.4v16.4h37.5L349.4,88v16.4H413.1z"></path>
			<path d="M468.6,77.4c-2.2,8.1-7.7,12.1-16.4,12.1c-10.1,0-18.4-6.1-18.6-16.9h47.9c0.6-2.7,0.9-5.5,0.9-8.6c0-19.4-13.2-30.3-32.7-30.3c-20.8,0-35.1,14.8-35.1,34.9c0,22.4,15.8,35.8,37.6,35.8c16.5,0,27.7-6.9,32.6-20.6L468.6,77.4zM433.6,59.9c1.8-7.8,8.3-12.4,16.1-12.4c8.5,0,14.3,4.6,14.3,11.8l-0.1,0.6H433.6z"></path>
			<path d="M527.4,58.1c0,0.7,0,2,0,2l18.5,0c0,0,0-3.5,0-5.4c0-12.1-7.6-20.9-20.3-20.9c-8.2,0-14,4-17,10.6V33.8h-19.1v70.6h19.1V58.9c0-7.2,3.9-11.2,9.8-11.2C523.9,47.8,527.4,52.9,527.4,58.1z"></path>
		</g>
	</g>
</svg>